<svg id="Capa_1" enable-background="new 0 0 512 512" height="512" viewBox="0 0 512 512" width="512" xmlns="http://www.w3.org/2000/svg"><path d="m461 0h-410c-8.284 0-15 6.716-15 15v482c0 8.284 6.716 15 15 15h410c8.284 0 15-6.716 15-15v-482c0-8.284-6.716-15-15-15zm-325 482v-152c0-13.785 11.215-25 25-25h15v122c0 8.284 6.716 15 15 15h100c8.271 0 15 6.729 15 15v25zm85-177c8.284 0 15-6.716 15-15v-25.211c1.652.126 3.316.211 5 .211 12.881 0 24.888-3.782 35-10.271v70.271h-70v-20zm115-29.274c-11.037 1.586-21.245 5.758-30 11.879v-127.605c0-30.678-21.37-56.442-50-63.234 4.819-1.143 9.837-1.766 15-1.766 35.841 0 65 29.159 65 65zm-130 136.274v-57h70v57zm35-287c19.299 0 35 15.701 35 35v40c0 19.299-15.701 35-35 35s-35-15.701-35-35v-40c0-19.299 15.701-35 35-35zm95 357v-25c0-19.555-12.541-36.228-30-42.42v-69.58c0-22.056 17.944-40 40-40h5c13.785 0 25 11.215 25 25v152zm110 0h-40v-152c0-25.127-16.943-46.356-40-52.904v-117.096c0-52.383-42.617-95-95-95s-95 42.617-95 95v40c0 22.96 11.977 43.162 30 54.729v20.271h-45c-30.327 0-55 24.673-55 55v152h-40v-452h380z"/></svg>